<svg width="45" height="45" viewBox="0 0 45 45" fill="none" xmlns="http://www.w3.org/2000/svg">
<g clip-path="url(#clip0_2024_436)">
<path d="M44.8499 36.8937L39.3612 28.6827L40.3272 28.3753C40.5321 28.3168 40.6858 28.1924 40.7882 28.0021C40.8907 27.8118 40.898 27.6289 40.8102 27.4532V27.3654L39.1416 23.0623L42.5666 19.8569C42.7129 19.7106 42.7934 19.5349 42.8081 19.33C42.8227 19.1251 42.7568 18.9495 42.6105 18.8031C42.5812 18.8031 42.5666 18.7885 42.5666 18.7592L39.1416 15.5977L40.8102 11.2507C40.898 11.0458 40.898 10.8482 40.8102 10.6579C40.7224 10.4676 40.5614 10.3432 40.3272 10.2847L35.8484 8.87958L35.4533 4.22519C35.424 4.16664 35.402 4.11541 35.3874 4.0715C35.3728 4.0276 35.3581 3.98368 35.3435 3.93978C35.3288 3.89587 35.3069 3.85196 35.2776 3.80805C35.2483 3.76414 35.2044 3.72755 35.1459 3.69827C34.9995 3.58118 34.8092 3.53727 34.5751 3.56655L29.8768 4.22519L27.5057 0.185528C27.3886 0.0098877 27.2276 -0.099884 27.0227 -0.143795C26.8177 -0.187702 26.6275 -0.151112 26.4518 -0.0340195L22.5 2.55663L18.5482 -0.0340195C18.4603 -0.0925674 18.3725 -0.129158 18.2847 -0.143795C18.1969 -0.158432 18.1017 -0.158432 17.9993 -0.143795C17.8968 -0.129158 17.809 -0.0925674 17.7358 -0.0340195C17.6626 0.0245247 17.5821 0.0977058 17.4943 0.185528L15.1232 4.22519L10.4249 3.56655C10.3371 3.53727 10.2566 3.52995 10.1834 3.54459C10.1102 3.55923 10.0371 3.5885 9.96388 3.63241C9.89069 3.67632 9.82483 3.72755 9.76628 3.78609C9.70774 3.84464 9.66383 3.9105 9.63456 3.98368C9.60528 4.05687 9.59065 4.12273 9.59065 4.18128L9.54674 4.22519L9.15155 8.87958L4.6728 10.2847C4.52643 10.3139 4.40934 10.3798 4.32152 10.4823C4.23371 10.5847 4.17516 10.6945 4.14589 10.8116C4.11661 10.9287 4.13125 11.075 4.1898 11.2507L5.85835 15.5977L2.43342 18.7592C2.28706 18.9055 2.20656 19.0812 2.19192 19.2861C2.17728 19.491 2.24315 19.6666 2.38951 19.813L2.43342 19.8569L5.85835 23.0623L4.1898 27.3654C4.10198 27.5703 4.10198 27.7679 4.1898 27.9582C4.27761 28.1485 4.43862 28.2875 4.6728 28.3753L5.6388 28.6827L0.150136 37.6402C0.0330446 37.8158 -0.00354653 38.0061 0.0403628 38.211C0.0842722 38.4159 0.194046 38.5769 0.369683 38.694C0.54532 38.7818 0.720958 38.8111 0.896595 38.7818L8.40509 37.4207L9.76628 44.1827C9.82483 44.534 10.0297 44.7389 10.381 44.7974C10.381 44.7974 10.3957 44.7974 10.4249 44.7974C10.4542 44.7974 10.4835 44.7974 10.5127 44.7974C10.7762 44.7974 10.9811 44.6803 11.1275 44.4461L16.3966 36.5864L17.4943 38.4306C17.6114 38.6062 17.7724 38.7233 17.9773 38.7818H18.153C18.2993 38.7818 18.4311 38.7526 18.5482 38.694L22.5 36.1034L26.4518 38.694C26.5397 38.7526 26.6275 38.7892 26.7153 38.8038C26.8031 38.8184 26.8982 38.8111 27.0007 38.7818C27.1032 38.7526 27.191 38.716 27.2642 38.6721C27.3373 38.6282 27.4032 38.5623 27.4618 38.4745L27.5057 38.4306L28.6034 36.5864L33.8725 44.4461C33.9311 44.5632 34.0189 44.6511 34.136 44.7096C34.2531 44.7682 34.3702 44.7974 34.4872 44.7974H34.619C34.9702 44.7096 35.1752 44.5047 35.2337 44.1827L36.5949 37.3767L44.1473 38.0354C44.3522 38.0647 44.5352 38.0134 44.6962 37.8817C44.8572 37.75 44.9523 37.5817 44.9816 37.3767C44.9816 37.2011 44.9377 37.0401 44.8499 36.8937ZM10.9079 42.119L9.76628 36.4107C9.70774 36.2058 9.59796 36.0448 9.43696 35.9277C9.27596 35.8106 9.09301 35.7667 8.8881 35.796L2.30169 37.0255L7.13172 29.1218L9.15155 29.7804L9.54674 34.3909C9.57601 34.4495 9.59796 34.5007 9.6126 34.5446C9.62724 34.5885 9.64187 34.6324 9.65651 34.6763C9.67115 34.7202 9.6931 34.7641 9.72237 34.808C9.75165 34.852 9.79556 34.8885 9.8541 34.9178C10.0005 35.0642 10.1907 35.1227 10.4249 35.0935L15.1232 34.4348L15.5184 35.1374L10.9079 42.119ZM28.8669 33.2493L26.6275 36.9816L22.8952 34.5665C22.7781 34.4787 22.6464 34.4348 22.5 34.4348C22.3536 34.4348 22.2219 34.4787 22.1048 34.5665L18.3725 36.9816L16.1331 33.2493C16.1039 33.1907 16.0673 33.1395 16.0234 33.0956C15.9795 33.0517 15.9282 33.0151 15.8697 32.9858C15.8111 32.9565 15.7526 32.9273 15.694 32.898C15.6355 32.8687 15.5623 32.8541 15.4745 32.8541C15.4452 32.8834 15.416 32.898 15.3867 32.898L10.9957 33.4688L10.6006 29.1657C10.6006 29.0486 10.5786 28.9461 10.5347 28.8583C10.4908 28.7705 10.4322 28.6973 10.3591 28.6388C10.2859 28.5802 10.1907 28.5363 10.0736 28.5071L5.85835 27.1898L7.43909 23.1062C7.55618 22.8135 7.49763 22.55 7.26345 22.3158L4.05807 19.33L7.26345 16.3442C7.35127 16.2563 7.40981 16.1685 7.43909 16.0807C7.46836 15.9929 7.49032 15.8978 7.50495 15.7953C7.51959 15.6928 7.49763 15.5977 7.43909 15.5099L5.85835 11.4702L10.1176 10.1529C10.4396 10.0359 10.6152 9.81631 10.6445 9.49431L10.9957 5.14728L15.3867 5.76201C15.533 5.79129 15.6794 5.76933 15.8258 5.69615C15.9721 5.62297 16.0746 5.52783 16.1331 5.41074L18.4164 1.63453L22.1048 4.09346C22.3683 4.2691 22.6317 4.2691 22.8952 4.09346L26.6275 1.63453L28.8669 5.41074C29.0425 5.67419 29.2913 5.79129 29.6133 5.76201L34.0042 5.14728L34.3994 9.49431C34.4287 9.81631 34.6043 10.0359 34.9263 10.1529L39.1416 11.4702L37.5609 15.5099C37.4438 15.8319 37.5024 16.11 37.7365 16.3442L40.9419 19.33L37.7365 22.3158C37.5024 22.55 37.4438 22.8135 37.5609 23.1062L39.1416 27.1898L34.8824 28.5071C34.7653 28.5363 34.6556 28.6095 34.5531 28.7266C34.4507 28.8437 34.3994 28.9901 34.3994 29.1657L34.0042 33.4688L29.6133 32.898C29.4669 32.8687 29.3279 32.8834 29.1962 32.9419C29.0644 33.0004 28.9547 33.1029 28.8669 33.2493ZM36.068 35.796C35.8631 35.796 35.6874 35.8472 35.5411 35.9497C35.3947 36.0521 35.2923 36.2058 35.2337 36.4107L34.0921 42.119L29.4816 35.1374L29.8768 34.4348L34.5751 35.0935C34.78 35.1227 34.9702 35.0715 35.1459 34.9398C35.3215 34.808 35.424 34.6251 35.4533 34.3909L35.8484 29.7804L37.8683 29.1218L42.7422 36.4107L36.068 35.796ZM33.7408 15.5538C33.7408 15.3489 33.7115 15.1513 33.653 14.961C33.5944 14.7707 33.5212 14.5951 33.4334 14.4341C33.3456 14.2731 33.2285 14.1194 33.0821 13.9731C32.9358 13.8267 32.7821 13.7096 32.6211 13.6218C32.4601 13.534 32.2845 13.4608 32.0942 13.4022C31.9039 13.3437 31.7063 13.3144 31.5014 13.3144H26.2323V10.3286C26.2323 9.30404 25.8664 8.42585 25.1346 7.69402C24.4027 6.9622 23.5245 6.59629 22.5 6.59629C22.4414 6.59629 22.3756 6.60361 22.3024 6.61824C22.2292 6.63288 22.1707 6.65484 22.1268 6.68411C22.0829 6.71338 22.0316 6.74997 21.9731 6.79388C21.9145 6.83779 21.8706 6.88902 21.8414 6.94757C21.8121 7.00611 21.7901 7.06466 21.7755 7.1232C21.7609 7.18175 21.7535 7.25493 21.7535 7.34275V10.8994L20.3923 13.5779L17.9773 15.5099C17.9773 15.4221 17.9554 15.3343 17.9115 15.2464C17.8676 15.1586 17.8163 15.0854 17.7578 15.0269C17.6992 14.9683 17.6261 14.9171 17.5382 14.8732C17.4504 14.8293 17.3626 14.8073 17.2748 14.8073H12.0057C11.9471 14.8073 11.8813 14.822 11.8081 14.8512C11.7349 14.8805 11.6763 14.9098 11.6324 14.9391C11.5885 14.9683 11.5373 15.0049 11.4787 15.0488C11.4202 15.0928 11.3763 15.144 11.347 15.2025C11.3177 15.2611 11.2958 15.3196 11.2812 15.3782C11.2665 15.4367 11.2592 15.4953 11.2592 15.5538V26.7946C11.2592 26.9995 11.3324 27.1751 11.4787 27.3215C11.6251 27.4679 11.8007 27.541 12.0057 27.541H17.2748C17.3333 27.541 17.3919 27.5337 17.4504 27.5191C17.509 27.5045 17.5675 27.4825 17.6261 27.4532C17.6846 27.424 17.7358 27.3874 17.7797 27.3435C17.8236 27.2995 17.8602 27.2483 17.8895 27.1898C17.9188 27.1312 17.9481 27.0727 17.9773 27.0141C18.0066 26.9556 18.0212 26.8824 18.0212 26.7946H29.262C29.8768 26.7946 30.4037 26.575 30.8428 26.136C31.2819 25.6969 31.5014 25.1699 31.5014 24.5552C31.5014 24.1747 31.399 23.8088 31.194 23.4575C31.2526 23.4282 31.3038 23.3989 31.3477 23.3697C31.3916 23.3404 31.4282 23.3111 31.4575 23.2818C31.4868 23.2526 31.5307 23.2087 31.5892 23.1501C31.9405 22.7988 32.1527 22.3744 32.2259 21.8767C32.2991 21.3791 32.204 20.9107 31.9405 20.4716C31.9991 20.4131 32.0649 20.3619 32.1381 20.318C32.2113 20.2741 32.2771 20.2228 32.3357 20.1643C32.687 19.813 32.8992 19.3885 32.9724 18.8909C33.0456 18.3933 32.9504 17.9249 32.687 17.4858L33.0821 17.1784C33.5212 16.7394 33.7408 16.1978 33.7408 15.5538ZM16.4844 26.0481H12.7521V16.3003H16.4844V26.0481ZM32.0283 16.1246C31.882 16.271 31.7063 16.3295 31.5014 16.3003H28.5156V17.8371H30.755C30.9599 17.8371 31.1355 17.9103 31.2819 18.0566C31.4282 18.203 31.5014 18.3786 31.5014 18.5835C31.5014 18.6714 31.4795 18.7592 31.4355 18.847C31.3916 18.9348 31.3404 19.0226 31.2819 19.1105C31.1355 19.2568 30.9599 19.33 30.755 19.33H27.7252V20.8229H30.0085C30.2134 20.8229 30.389 20.8961 30.5354 21.0425C30.6818 21.1888 30.755 21.3645 30.755 21.5694C30.755 21.6279 30.7476 21.6938 30.733 21.767C30.7184 21.8402 30.6891 21.906 30.6452 21.9646C30.6013 22.0231 30.5647 22.067 30.5354 22.0963C30.389 22.2427 30.2134 22.3158 30.0085 22.3158H26.9788V23.8088H29.262C29.4669 23.8088 29.6426 23.8819 29.7889 24.0283C29.9353 24.1747 30.0085 24.3503 30.0085 24.5552C30.0085 24.6723 29.9865 24.7748 29.9426 24.8626C29.8987 24.9504 29.8329 25.0236 29.745 25.0821C29.6279 25.2285 29.4669 25.3017 29.262 25.3017H18.0212V17.4419L21.4901 14.6756C21.5194 14.6171 21.5486 14.5732 21.5779 14.5439C21.6072 14.5146 21.6364 14.4707 21.6657 14.4122L23.1586 11.4263C23.2172 11.3092 23.2465 11.1921 23.2465 11.075V8.22094C23.5392 8.30875 23.8026 8.46244 24.0368 8.68198C24.271 8.90153 24.4466 9.15035 24.5637 9.42844C24.6808 9.70654 24.7394 10.0066 24.7394 10.3286V14.0609C24.7394 14.2072 24.776 14.339 24.8491 14.4561C24.9223 14.5732 25.0175 14.661 25.1346 14.7195C25.2516 14.7781 25.3687 14.8073 25.4858 14.8073H31.5014C31.5892 14.8073 31.6844 14.8293 31.7868 14.8732C31.8893 14.9171 31.9698 14.9757 32.0283 15.0488C32.0869 15.122 32.1381 15.2025 32.182 15.2903C32.2259 15.3782 32.2479 15.466 32.2479 15.5538C32.2479 15.788 32.1747 15.9783 32.0283 16.1246Z" fill="#D20032"/>
</g>
<defs>
<clipPath id="clip0_2024_436">
<rect width="45" height="45" fill="white"/>
</clipPath>
</defs>
</svg>
