<svg width="16" height="12" viewBox="0 0 16 12" fill="none" xmlns="http://www.w3.org/2000/svg">
<path d="M10.7812 0.570312C10.6667 0.455729 10.5312 0.398438 10.375 0.398438C10.2188 0.398438 10.0833 0.455729 9.96875 0.570312C9.85417 0.674479 9.79688 0.804688 9.79688 0.960938C9.79688 1.11719 9.85417 1.2526 9.96875 1.36719L14.0625 5.46094H0.5625C0.40625 5.46094 0.273438 5.51562 0.164062 5.625C0.0546875 5.73438 0 5.86719 0 6.02344C0 6.17969 0.0546875 6.3125 0.164062 6.42188C0.273438 6.53125 0.40625 6.58594 0.5625 6.58594H14.0625L9.96875 10.6797C9.85417 10.7839 9.79688 10.9167 9.79688 11.0781C9.79688 11.2396 9.85417 11.3724 9.96875 11.4766C10.0833 11.5911 10.2188 11.6484 10.375 11.6484C10.5312 11.6484 10.6667 11.5911 10.7812 11.4766L15.8281 6.42969C15.9427 6.3151 16 6.17969 16 6.02344C16 5.86719 15.9427 5.73177 15.8281 5.61719L10.7812 0.570312Z" fill="white"/>
</svg>
