<svg width="22" height="18" viewBox="0 0 22 18" fill="none" xmlns="http://www.w3.org/2000/svg">
<path d="M19.3683 0.852442C20.3597 0.852442 21.1675 1.66025 21.1675 2.61494V15.5399C21.1675 16.5313 20.3597 17.3024 19.3683 17.3024H1.78005C0.788641 17.3024 0.0175476 16.5313 0.0175476 15.5399V2.61494C0.0175476 1.66025 0.788641 0.852442 1.78005 0.852442H19.3683ZM2.00036 2.61494C1.85349 2.61494 1.78005 2.7251 1.78005 2.83525V4.37744H19.3683V2.83525C19.3683 2.7251 19.2949 2.61494 19.148 2.61494H2.00036ZM19.148 15.5399C19.2949 15.5399 19.3683 15.4665 19.3683 15.3196V9.07744H1.78005V15.3196C1.78005 15.4665 1.85349 15.5399 2.00036 15.5399H19.148ZM7.06755 11.8681V13.3368C7.06755 13.5938 6.84723 13.7774 6.62692 13.7774H3.98317C3.72614 13.7774 3.54255 13.5938 3.54255 13.3368V11.8681C3.54255 11.6478 3.72614 11.4274 3.98317 11.4274H6.62692C6.84723 11.4274 7.06755 11.6478 7.06755 11.8681ZM14.1175 11.8681V13.3368C14.1175 13.5938 13.8972 13.7774 13.6769 13.7774H8.68317C8.42614 13.7774 8.24255 13.5938 8.24255 13.3368V11.8681C8.24255 11.6478 8.42614 11.4274 8.68317 11.4274H13.6769C13.8972 11.4274 14.1175 11.6478 14.1175 11.8681Z" fill="white"/>
</svg>
