<svg width="109" height="32" viewBox="0 0 109 32" fill="none" xmlns="http://www.w3.org/2000/svg">
<path d="M20.8476 12.1402L18.5233 8.58765L22.2239 10.6138C22.7353 10.8932 22.9262 11.5394 22.649 12.0577C22.3734 12.5761 21.7342 12.7679 21.2245 12.4886C21.0684 12.4027 20.9406 12.2799 20.8476 12.1402Z" fill="#FF9506"/>
<path d="M22.6573 28.153C22.287 28.2657 21.9384 28.3785 21.6096 28.4929C21.867 28.1883 22.2754 28.057 22.6573 28.153Z" fill="#FF9506"/>
<path d="M44.707 18.7843V20.1525L43.3688 20.5564C42.8127 20.7264 42.2266 20.405 42.0606 19.8412C41.8945 19.2774 42.21 18.6834 42.7678 18.5151C42.9372 18.4629 43.1148 18.4579 43.2775 18.4915L44.707 18.7843Z" fill="#FF9506"/>
<path d="M38.5425 9.97273L42.0473 7.6167L40.0483 11.3678C39.7727 11.8862 39.1335 12.078 38.6239 11.7987C38.1125 11.5193 37.9216 10.8714 38.1988 10.3547C38.2835 10.1966 38.4047 10.067 38.5425 9.97273Z" fill="#FF9506"/>
<path d="M29.2518 7.34241L30.0869 3.16382L31.2905 7.24986C31.4566 7.81362 31.1395 8.40768 30.5833 8.57597C30.0271 8.74425 29.441 8.42282 29.275 7.85906C29.2235 7.68741 29.2202 7.50734 29.2518 7.34241Z" fill="#FF9506"/>
<path d="M34.1561 7.72106L38.0013 0L36.0754 8.42619C35.9475 8.98659 35.3947 9.33495 34.8418 9.20536C34.289 9.07578 33.9453 8.51538 34.0731 7.95498C34.0914 7.87421 34.1213 7.79174 34.1561 7.72106Z" fill="#FF9506"/>
<path d="M24.5798 8.89405L21.9118 0.678223L26.4277 8.01727C26.7282 8.5053 26.5804 9.14817 26.099 9.45277C25.6175 9.75737 24.9833 9.60759 24.6828 9.11956C24.6396 9.04888 24.6031 8.96978 24.5782 8.89405H24.5798Z" fill="#FF9506"/>
<path d="M42.904 23.4611L44.707 24.3833V25.9938L42.2083 25.4065C41.6555 25.2752 41.3118 24.7165 41.4396 24.1561C41.5675 23.5957 42.1187 23.2473 42.6715 23.3769C42.7529 23.3954 42.8326 23.4257 42.904 23.4611Z" fill="#FF9506"/>
<path d="M50.5212 27.3586L49.9351 27.2206V27.0591L50.5212 27.3586Z" fill="#FF9506"/>
<path d="M44.707 12.7664V14.3011L42.6101 15.6273C42.1286 15.9319 41.4961 15.7838 41.1956 15.2957C40.8951 14.8077 41.0412 14.1648 41.5226 13.8602C41.5924 13.8165 41.6704 13.7795 41.7451 13.7542L44.707 12.7664Z" fill="#FF9506"/>
<path d="M44.707 8.27979V12.7663L49.8504 11.0498L44.707 14.3011V18.7843L47.3999 19.338L44.707 20.1525V24.3833L49.9351 27.0591V8.27979H44.707Z" fill="white"/>
<path d="M18.5234 24.6862C18.5234 25.8625 18.2627 26.9547 17.7381 27.9628C17.6717 28.0924 17.6003 28.2186 17.5256 28.3431C17.0723 29.1021 16.4713 29.7567 15.7242 30.3053C15.3772 30.5628 14.997 30.7951 14.5853 31.0054C13.2886 31.6685 11.718 32 9.87514 32C7.09589 32 4.80807 31.3134 3.01169 29.9418C1.21364 28.5686 0.232435 26.6518 0.0697307 24.1914H6.44175C6.53639 25.1372 6.86844 25.8827 7.44122 26.428C8.01235 26.9716 8.74119 27.2425 9.62943 27.2425C10.3998 27.2425 11.0058 27.0305 11.4491 26.6047C11.894 26.1789 12.1148 25.6101 12.1148 24.9016C12.1148 24.2604 11.9123 23.7286 11.5022 23.3029C11.0938 22.8771 10.5857 22.5288 9.97974 22.2561C9.37209 21.9852 8.532 21.6587 7.45782 21.2817C5.89553 20.7348 4.61548 20.2097 3.62432 19.6998C2.63149 19.1916 1.77978 18.436 1.0692 17.4296C0.355293 16.4233 0 15.1173 0 13.5068C0 12.0158 0.371895 10.725 1.11901 9.63788C1.86778 8.54905 2.90045 7.71434 4.21869 7.13543C5.53692 6.55652 7.0494 6.26538 8.75448 6.26538C11.5088 6.26538 13.697 6.92844 15.3191 8.25286C16.9411 9.57897 17.8576 11.3999 18.0685 13.7189H11.5902C11.474 12.8926 11.1751 12.2346 10.6986 11.7499C10.2188 11.2652 9.57132 11.0229 8.75448 11.0229C8.05385 11.0229 7.48605 11.2114 7.05438 11.59C6.62272 11.9687 6.40855 12.524 6.40855 13.2578C6.40855 13.8501 6.59948 14.3533 6.98631 14.7656C7.36983 15.1796 7.85462 15.5179 8.43903 15.777C9.02344 16.0396 9.86186 16.3694 10.9609 16.7716C12.5465 17.3152 13.8431 17.8554 14.8476 18.3872C15.8504 18.919 16.7154 19.6948 17.4376 20.7129C18.1614 21.7294 18.5234 23.0538 18.5234 24.6862Z" fill="white"/>
<path d="M49.9351 27.2207V31.2125H44.707V25.9939L49.9351 27.2207Z" fill="white"/>
<path d="M53.5428 13.9208V31.2124H58.7709V13.9208H53.5428ZM58.4339 7.05633C57.8628 6.52959 57.109 6.26538 56.1726 6.26538C55.2363 6.26538 54.4792 6.52959 53.9097 7.05633C53.3386 7.58308 53.053 8.2495 53.053 9.0556C53.053 9.8617 53.3386 10.4961 53.9097 11.0229C54.4792 11.5496 55.2346 11.8122 56.1726 11.8122C57.1107 11.8122 57.8628 11.5496 58.4339 11.0229C59.005 10.4961 59.2906 9.83982 59.2906 9.0556C59.2906 8.27138 59.005 7.58308 58.4339 7.05633Z" fill="white"/>
<path d="M77.8621 15.7182C76.7115 14.3955 75.1576 13.7341 73.2001 13.7341C71.8952 13.7341 70.7596 14.0337 69.7916 14.6328C68.8237 15.2319 68.0949 16.0481 67.6051 17.0814V13.9209H62.377V31.2125H67.6051V22.0392C67.6051 20.7804 67.9156 19.8077 68.5382 19.1261C69.1591 18.4445 70.0008 18.1029 71.0601 18.1029C72.0595 18.1029 72.8598 18.4294 73.4608 19.0806C74.0618 19.7302 74.3623 20.6339 74.3623 21.7918V31.2125H79.5904V21.1725C79.5904 18.8585 79.0143 17.0393 77.8621 15.7182Z" fill="white"/>
<path d="M83.0454 13.9208V31.2124H88.2735V13.9208H83.0454ZM87.9365 7.05633C87.3653 6.52959 86.6116 6.26538 85.6735 6.26538C84.7355 6.26538 83.9817 6.52959 83.4123 7.05633C82.8412 7.58308 82.5556 8.2495 82.5556 9.0556C82.5556 9.8617 82.8412 10.4961 83.4123 11.0229C83.9817 11.5496 84.7355 11.8122 85.6735 11.8122C86.6116 11.8122 87.3653 11.5496 87.9365 11.0229C88.5076 10.4961 88.7931 9.83982 88.7931 9.0556C88.7931 8.27138 88.5076 7.58308 87.9365 7.05633Z" fill="white"/>
<path d="M103.803 13.9207V17.0492C103.355 16.0176 102.661 15.2014 101.725 14.6023C100.787 14.0032 99.6644 13.7036 98.3611 13.7036C96.9549 13.7036 95.6964 14.0587 94.5857 14.7722C93.475 15.4858 92.5984 16.5073 91.9559 17.8401C91.3134 19.173 90.993 20.7482 90.993 22.5657C90.993 24.3832 91.3134 25.9331 91.9559 27.2761C92.5984 28.619 93.475 29.6472 94.5857 30.3608C95.6964 31.0726 96.9549 31.4294 98.3611 31.4294C99.6644 31.4294 100.787 31.1299 101.725 30.5307C102.661 29.9316 103.355 29.1154 103.803 28.0822V31.2123H109V13.9207H103.803ZM102.748 25.6336C102.045 26.3993 101.144 26.7813 100.043 26.7813C98.9422 26.7813 98.0191 26.4094 97.3368 25.6655C96.6544 24.9217 96.3124 23.8884 96.3124 22.5657C96.3124 21.2429 96.6544 20.2113 97.3368 19.4675C98.0191 18.7236 98.9206 18.3517 100.043 18.3517C101.165 18.3517 102.045 18.7287 102.748 19.4826C103.451 20.2366 103.803 21.2648 103.803 22.5657C103.803 23.8665 103.451 24.8695 102.748 25.6336Z" fill="white"/>
<path d="M22.6574 28.153C22.2872 28.2657 21.9385 28.3785 21.6098 28.4929C21.8671 28.1883 22.2755 28.057 22.6574 28.153Z" fill="white"/>
<path d="M36.9853 24.8275C36.952 24.851 36.9205 24.8712 36.8873 24.8897C36.9072 24.8645 36.9255 24.8409 36.9437 24.8157C36.9587 24.819 36.972 24.8241 36.9853 24.8275Z" fill="white"/>
<path d="M33.2529 29.7566C32.2535 29.9215 31.2391 29.9047 30.2695 29.696C30.6281 29.6758 31 29.6657 31.3818 29.6674C32.041 29.6691 32.6652 29.7011 33.2529 29.7566Z" fill="white"/>
<path d="M24.5234 24.6711C22.2289 23.2811 21.3673 20.1492 22.0895 17.5946C23.0441 13.9192 27.0204 11.4975 30.6331 12.6554C31.4582 12.9229 32.2153 13.3571 32.7898 13.9646C32.3847 13.9377 31.9928 13.9108 31.5994 13.9041L31.0349 13.9209L30.487 13.9697C25.1559 14.6361 22.6639 19.7251 24.5217 24.6711H24.5234Z" fill="#FF9506"/>
<path d="M26.6701 19.1511C27.0088 18.0774 27.9435 17.204 29.0659 16.79C30.1899 16.3643 31.5181 16.4164 32.647 16.9415C33.781 17.4548 34.6974 18.4342 35.1224 19.5702C35.5574 20.6977 35.5226 21.9901 34.9465 22.9544C34.6825 21.8707 34.284 21.0158 33.7428 20.3224C33.2049 19.6341 32.5557 19.1175 31.8252 18.7809C31.0947 18.4426 30.2828 18.2895 29.4162 18.3332C28.5446 18.3787 27.6464 18.6379 26.6701 19.1528V19.1511Z" fill="#FF9506"/>
<path d="M36.5105 25.3542C39.8592 18.6765 36.2714 11.3594 28.6326 11.1877C27.678 11.1675 26.6851 11.2954 25.6641 11.5108C27.2513 10.0114 29.5474 9.35169 31.7273 9.53849C36.5055 9.89863 40.2643 14.264 39.8791 19.1629C39.7098 21.6081 38.4729 24.0517 36.5105 25.3559V25.3542Z" fill="#FF9506"/>
<path d="M19.4829 29.3275C25.4548 25.4754 33.5286 25.1085 39.9969 27.8802C40.9283 28.2774 41.8149 28.7806 42.6649 29.3275C41.2072 29.0027 39.7778 28.6257 38.3051 28.4019C33.5219 27.5521 28.6275 27.5352 23.8444 28.4053C22.3767 28.6409 20.9423 28.9741 19.4829 29.3275Z" fill="white"/>
<path d="M38.2089 30.8726C36.625 30.5747 34.6543 30.3004 33.2099 30.2263C32.2403 30.1607 31.2674 30.1708 30.2962 30.1893L29.9243 30.0463C30.0887 30.2331 30.4439 30.2331 30.6083 30.0463L30.2895 30.1893C29.32 30.2247 28.3537 30.2987 27.3874 30.4165C26.4079 30.5326 25.44 30.6959 24.4604 30.8726C24.8937 30.6134 25.3503 30.3929 25.8168 30.2045C27.2231 29.6256 28.7256 29.3109 30.2397 29.2032L29.921 29.3462C30.0887 29.156 30.4473 29.156 30.6149 29.3462L30.2431 29.2032C33.004 29.045 35.7368 29.464 38.2089 30.8743V30.8726Z" fill="white"/>
</svg>
