<svg width="131" height="38" viewBox="0 0 131 38" fill="none" xmlns="http://www.w3.org/2000/svg">
<path d="M25.0554 14.4166L22.2619 10.1979L26.7095 12.604C27.3241 12.9358 27.5535 13.7032 27.2203 14.3187C26.8891 14.9342 26.1209 15.162 25.5083 14.8303C25.3207 14.7284 25.1671 14.5825 25.0554 14.4166Z" fill="#FF9506"/>
<path d="M27.2303 33.4316C26.7853 33.5655 26.3663 33.6994 25.9712 33.8353C26.2805 33.4736 26.7714 33.3177 27.2303 33.4316Z" fill="#FF9506"/>
<path d="M53.7304 22.3064V23.9311L52.1222 24.4107C51.4537 24.6126 50.7494 24.2309 50.5498 23.5614C50.3503 22.8919 50.7294 22.1865 51.3999 21.9866C51.6034 21.9247 51.8169 21.9187 52.0124 21.9587L53.7304 22.3064Z" fill="#FF9506"/>
<path d="M46.3217 11.8427L50.5339 9.04486L48.1315 13.4993C47.8003 14.1149 47.0321 14.3427 46.4195 14.0109C45.8049 13.6792 45.5755 12.9098 45.9087 12.2963C46.0104 12.1084 46.1561 11.9546 46.3217 11.8427Z" fill="#FF9506"/>
<path d="M35.1558 8.71912L36.1594 3.75703L37.6061 8.6092C37.8056 9.27868 37.4245 9.98412 36.756 10.184C36.0876 10.3838 35.3832 10.0021 35.1837 9.33263C35.1219 9.12879 35.1179 8.91496 35.1558 8.71912Z" fill="#FF9506"/>
<path d="M41.05 9.16876L45.6712 0L43.3566 10.0061C43.203 10.6716 42.5386 11.0852 41.8741 10.9314C41.2097 10.7775 40.7966 10.112 40.9503 9.44654C40.9722 9.35062 41.0081 9.25269 41.05 9.16876Z" fill="#FF9506"/>
<path d="M29.5409 10.5617L26.3344 0.805365L31.7617 9.52048C32.1229 10.1 31.9453 10.8634 31.3666 11.2251C30.788 11.5869 30.0258 11.409 29.6646 10.8294C29.6127 10.7455 29.5688 10.6516 29.5389 10.5617H29.5409Z" fill="#FF9506"/>
<path d="M51.5635 27.86L53.7304 28.9551V30.8676L50.7274 30.1702C50.063 30.0143 49.6499 29.3508 49.8036 28.6854C49.9572 28.0199 50.6197 27.6062 51.2841 27.7601C51.3819 27.7821 51.4777 27.818 51.5635 27.86Z" fill="#FF9506"/>
<path d="M60.7181 32.4884L60.0137 32.3245V32.1326L60.7181 32.4884Z" fill="#FF9506"/>
<path d="M53.7304 15.16V16.9826L51.2103 18.5573C50.6316 18.9191 49.8714 18.7432 49.5103 18.1637C49.1491 17.5841 49.3247 16.8207 49.9034 16.459C49.9872 16.407 50.0809 16.3631 50.1707 16.3331L53.7304 15.16Z" fill="#FF9506"/>
<path d="M53.7304 9.83224V15.16L59.912 13.1216L53.7304 16.9826V22.3064L56.9669 22.9639L53.7304 23.9311V28.9551L60.0137 32.1326V9.83224H53.7304Z" fill="#1B756B"/>
<path d="M22.262 29.3149C22.262 30.7118 21.9488 32.0087 21.3182 33.2058C21.2384 33.3597 21.1526 33.5095 21.0628 33.6574C20.5181 34.5587 19.7958 35.3361 18.8979 35.9876C18.4809 36.2933 18.0239 36.5691 17.5291 36.8189C15.9707 37.6063 14.0831 38 11.8683 38C8.52809 38 5.77851 37.1846 3.61955 35.5559C1.45859 33.9252 0.279348 31.649 0.0838047 28.7273H7.74192C7.85566 29.8504 8.25473 30.7357 8.94312 31.3832C9.62952 32.0287 10.5055 32.3505 11.573 32.3505C12.4988 32.3505 13.2271 32.0987 13.7599 31.5931C14.2946 31.0875 14.56 30.412 14.56 29.5707C14.56 28.8093 14.3166 28.1778 13.8237 27.6722C13.3329 27.1665 12.7223 26.7529 11.994 26.4291C11.2637 26.1074 10.2541 25.7197 8.96307 25.272C7.08546 24.6226 5.54705 23.9991 4.35583 23.3935C3.16262 22.79 2.13901 21.8927 1.285 20.6977C0.427004 19.5026 0 17.9518 0 16.0393C0 14.2687 0.446956 12.7359 1.34486 11.445C2.24476 10.152 3.48586 9.16077 5.07016 8.47331C6.65446 7.78585 8.47222 7.44013 10.5214 7.44013C13.8317 7.44013 16.4616 8.22751 18.411 9.80026C20.3605 11.375 21.4619 13.5373 21.7153 16.2911H13.9295C13.7898 15.3099 13.4306 14.5285 12.858 13.953C12.2813 13.3774 11.5031 13.0897 10.5214 13.0897C9.6794 13.0897 8.99699 13.3135 8.4782 13.7631C7.95942 14.2128 7.70202 14.8723 7.70202 15.7436C7.70202 16.447 7.93148 17.0445 8.3964 17.5342C8.85732 18.0258 9.43996 18.4275 10.1423 18.7352C10.8447 19.047 11.8523 19.4387 13.1732 19.9163C15.0788 20.5618 16.6372 21.2033 17.8443 21.8348C19.0495 22.4663 20.0891 23.3875 20.9571 24.5966C21.827 25.8036 22.262 27.3764 22.262 29.3149Z" fill="#1B756B"/>
<path d="M60.0137 32.3245V37.0647H53.7304V30.8676L60.0137 32.3245Z" fill="#1B756B"/>
<path d="M64.3496 16.531V37.0647H70.6329V16.531H64.3496ZM70.2279 8.37939C69.5415 7.75388 68.6356 7.44013 67.5102 7.44013C66.3849 7.44013 65.475 7.75388 64.7906 8.37939C64.1042 9.00489 63.761 9.79627 63.761 10.7535C63.761 11.7108 64.1042 12.4642 64.7906 13.0897C65.475 13.7152 66.3829 14.0269 67.5102 14.0269C68.6376 14.0269 69.5415 13.7152 70.2279 13.0897C70.9143 12.4642 71.2575 11.6848 71.2575 10.7535C71.2575 9.82225 70.9143 9.00489 70.2279 8.37939Z" fill="#1B756B"/>
<path d="M93.5774 18.6653C92.1946 17.0945 90.327 16.3091 87.9745 16.3091C86.4061 16.3091 85.0413 16.6648 83.878 17.3763C82.7147 18.0877 81.8388 19.057 81.2502 20.284V16.531H74.9668V37.0647H81.2502V26.1713C81.2502 24.6765 81.6233 23.5214 82.3715 22.7121C83.1178 21.9027 84.1294 21.497 85.4025 21.497C86.6037 21.497 87.5654 21.8847 88.2877 22.6581C89.01 23.4295 89.3712 24.5027 89.3712 25.8776V37.0647H95.6545V25.1422C95.6545 22.3943 94.9621 20.234 93.5774 18.6653Z" fill="#1B756B"/>
<path d="M99.8068 16.531V37.0647H106.09V16.531H99.8068ZM105.685 8.37939C104.999 7.75388 104.093 7.44013 102.965 7.44013C101.838 7.44013 100.932 7.75388 100.248 8.37939C99.5614 9.00489 99.2182 9.79627 99.2182 10.7535C99.2182 11.7108 99.5614 12.4642 100.248 13.0897C100.932 13.7152 101.838 14.0269 102.965 14.0269C104.093 14.0269 104.999 13.7152 105.685 13.0897C106.371 12.4642 106.715 11.6848 106.715 10.7535C106.715 9.82225 106.371 9.00489 105.685 8.37939Z" fill="#1B756B"/>
<path d="M124.755 16.531V20.246C124.216 19.021 123.382 18.0518 122.256 17.3403C121.129 16.6289 119.78 16.2732 118.214 16.2732C116.524 16.2732 115.011 16.6948 113.676 17.5422C112.342 18.3895 111.288 19.6025 110.516 21.1853C109.744 22.768 109.359 24.6386 109.359 26.7968C109.359 28.9551 109.744 30.7957 110.516 32.3904C111.288 33.9852 112.342 35.2062 113.676 36.0535C115.011 36.8989 116.524 37.3225 118.214 37.3225C119.78 37.3225 121.129 36.9668 122.256 36.2554C123.382 35.5439 124.216 34.5747 124.755 33.3477V37.0647H131V16.531H124.755ZM123.486 30.44C122.642 31.3493 121.558 31.8029 120.235 31.8029C118.912 31.8029 117.803 31.3612 116.983 30.4779C116.163 29.5946 115.752 28.3676 115.752 26.7968C115.752 25.2261 116.163 24.0011 116.983 23.1178C117.803 22.2344 118.886 21.7928 120.235 21.7928C121.584 21.7928 122.642 22.2404 123.486 23.1357C124.332 24.031 124.755 25.2521 124.755 26.7968C124.755 28.3416 124.332 29.5327 123.486 30.44Z" fill="#1B756B"/>
<path d="M27.2304 33.4316C26.7855 33.5655 26.3665 33.6994 25.9714 33.8353C26.2807 33.4736 26.7715 33.3177 27.2304 33.4316Z" fill="white"/>
<path d="M44.4502 29.4827C44.4102 29.5107 44.3723 29.5347 44.3324 29.5567C44.3564 29.5267 44.3783 29.4987 44.4003 29.4687C44.4182 29.4727 44.4342 29.4787 44.4502 29.4827Z" fill="white"/>
<path d="M39.9646 35.3361C38.7634 35.5319 37.5442 35.512 36.3789 35.2642C36.8099 35.2402 37.2569 35.2282 37.7158 35.2302C38.508 35.2322 39.2582 35.2702 39.9646 35.3361Z" fill="white"/>
<path d="M29.4731 29.2969C26.7155 27.6462 25.6799 23.9271 26.5479 20.8935C27.6952 16.5289 32.4741 13.6532 36.8159 15.0281C37.8076 15.3459 38.7175 15.8615 39.4079 16.5829C38.921 16.5509 38.4501 16.519 37.9772 16.511L37.2988 16.5309L36.6403 16.5889C30.2333 17.3803 27.2383 23.4235 29.4711 29.2969H29.4731Z" fill="#FF9506"/>
<path d="M32.0531 22.742C32.4602 21.4671 33.5835 20.4299 34.9324 19.9383C36.2832 19.4327 37.8795 19.4946 39.2363 20.1181C40.5992 20.7276 41.7006 21.8907 42.2114 23.2397C42.7342 24.5786 42.6923 26.1134 41.9999 27.2585C41.6826 25.9715 41.2037 24.9563 40.5533 24.133C39.9068 23.3156 39.1266 22.7021 38.2486 22.3024C37.3707 21.9007 36.395 21.7189 35.3534 21.7708C34.3058 21.8248 33.2264 22.1325 32.0531 22.744V22.742Z" fill="#FF9506"/>
<path d="M43.8796 30.1082C47.9042 22.1785 43.5922 13.4894 34.4117 13.2855C33.2643 13.2615 32.0711 13.4134 30.844 13.6692C32.7515 11.8886 35.5111 11.1052 38.131 11.3271C43.8736 11.7547 48.391 16.9386 47.9281 22.756C47.7246 25.6597 46.2381 28.5615 43.8796 30.1102V30.1082Z" fill="#FF9506"/>
<path d="M23.4153 34.8265C30.5925 30.2521 40.2958 29.8165 48.0697 33.1079C49.1891 33.5795 50.2546 34.177 51.2762 34.8265C49.5243 34.4408 47.8063 33.9932 46.0364 33.7274C40.2879 32.7182 34.4056 32.6982 28.657 33.7314C26.8931 34.0112 25.1692 34.4068 23.4153 34.8265Z" fill="#1B756B"/>
<path d="M45.9208 36.6611C44.0172 36.3073 41.6488 35.9816 39.9128 35.8937C38.7475 35.8157 37.5783 35.8277 36.411 35.8497L35.964 35.6798C36.1616 35.9017 36.5886 35.9017 36.7861 35.6798L36.403 35.8497C35.2377 35.8917 34.0764 35.9796 32.9152 36.1195C31.7379 36.2574 30.5746 36.4512 29.3974 36.6611C29.9182 36.3533 30.4669 36.0915 31.0276 35.8677C32.7176 35.1802 34.5234 34.8065 36.3432 34.6786L35.96 34.8485C36.1616 34.6227 36.5926 34.6227 36.7941 34.8485L36.3471 34.6786C39.6654 34.4908 42.9497 34.9884 45.9208 36.6631V36.6611Z" fill="#1B756B"/>
</svg>
